<svg xmlns="http://www.w3.org/2000/svg" width="12.753" height="20.625" viewBox="0 0 12.753 20.625">
    <path id="Arrow_1195" data-name="Arrow 1195" d="M2911.125,249.918h20.625v.041l-.164.124v.083l-.164.124v.082l-.206.165v.083l-.082.041v.041l-.082.041v.083l-.082.041v.041l-.082.041v.082l-.206.165v.083l-.082.041v.041l-.082.041v.083l-.164.124v.082l-.164.124v.082l-.205.165v.082l-.165.124v.083l-.164.124v.083l-.164.124v.082l-.205.165v.083l-.164.124v.083l-.164.124v.082l-.165.124v.083l-.205.165v.082l-.164.124v.083l-.164.124v.083l-.164.124v.082l-.206.165v.083l-.164.124v.083l-.164.124v.082l-.164.124v.082l-.206.165v.083l-.164.124v.082l-.164.124v.083l-.165.124v.083l-.205.165v.082l-.082.041v.041l-.082.041v.083l-.164.124v.082l-.165.124v.083l-.205.165v.083l-.164.124v.082l-.165.124v.082l-.164.124v.082l-.205.165v.082l-.164.124v.083l-.164.124v.083l-.164.124v.083l-.206.165v.083l-.164.124v.082l-.164.124v.083l-.082.041v.041l-.082.041v.082l-.206.165v.083l-.164.124v.082l-.164.124v.082l-.164.124v.082l-.206.165v.083l-.164.124v.082l-.082.041v.041l-.082.041v.082l-.164.124v.083l-.205.165v.082l-.082.041v.041l-.082.041v.083l-.164.124v.083l-.164.124v.082l-.205.165c-.082.113-.047.164-.206.207Z" transform="translate(-249.918 2931.75) rotate(-90)" fill="#90959b" />
</svg>
  