<svg xmlns="http://www.w3.org/2000/svg" width="39.24" height="51" viewBox="0 0 39.24 51">
  <g id="Group_172" data-name="Group 172" transform="translate(-2867.07 -386.99)">
    <path id="Rectangle_3_copy_17" data-name="Rectangle 3 copy 17" d="M6.25,0H38.24a0,0,0,0,1,0,0V50a0,0,0,0,1,0,0H6.25A6.25,6.25,0,0,1,0,43.75V6.25A6.25,6.25,0,0,1,6.25,0Z" transform="translate(2867.57 387.49)" fill="#c6d5fb" stroke="#c6d5fb" stroke-width="1"/>
    <path id="Arrow_1165_copy" data-name="Arrow 1165 copy" d="M2894,401v23h-.045l-.136-.183h-.091l-.136-.183h-.091l-.181-.229h-.091l-.045-.091h-.045l-.045-.092H2893l-.045-.092h-.045l-.045-.092h-.091l-.181-.229h-.091l-.045-.092h-.045l-.045-.092h-.091l-.136-.183h-.091l-.136-.183h-.091l-.181-.229h-.09l-.136-.183h-.091l-.136-.183h-.091l-.136-.183h-.091l-.181-.229h-.09l-.136-.183h-.091l-.136-.183h-.091l-.136-.183h-.091l-.181-.229h-.091l-.136-.183h-.091l-.136-.183h-.091l-.136-.183h-.091l-.181-.229h-.091l-.136-.183h-.091l-.136-.183h-.091l-.136-.183h-.091l-.181-.229h-.091l-.136-.183h-.091l-.136-.183h-.091l-.136-.183h-.091l-.181-.229h-.091l-.045-.092h-.045l-.045-.092h-.091l-.136-.183h-.091l-.136-.183h-.091l-.181-.229h-.091l-.136-.183h-.091l-.136-.183h-.091l-.136-.183h-.091l-.181-.229h-.091l-.136-.183h-.091l-.136-.183h-.091l-.136-.183h-.091l-.181-.229h-.091l-.136-.183h-.091l-.136-.183h-.091l-.045-.092h-.045l-.045-.092h-.091l-.181-.229h-.091l-.136-.183h-.091l-.136-.183h-.09l-.136-.183h-.09l-.181-.229h-.091l-.136-.183h-.091l-.045-.092h-.045l-.045-.092h-.091l-.136-.183h-.09l-.181-.229h-.091l-.045-.092H2881l-.045-.092h-.091l-.136-.183h-.09l-.136-.183h-.091l-.181-.229c-.124-.091-.179-.052-.227-.229Z" fill="#123347"/>
  </g>
</svg>
