<svg xmlns="http://www.w3.org/2000/svg" width="39.24" height="51" viewBox="0 0 39.24 51">
  <g id="Group_173" data-name="Group 173" transform="translate(-2915.69 -386.99)">
    <path id="Rectangle_3_copy_16" data-name="Rectangle 3 copy 16" d="M0,0H31.99a6.25,6.25,0,0,1,6.25,6.25v37.5A6.25,6.25,0,0,1,31.99,50H0a0,0,0,0,1,0,0V0A0,0,0,0,1,0,0Z" transform="translate(2916.19 387.49)" fill="#c6d5fb" stroke="#c6d5fb" stroke-width="1"/>
    <path id="Arrow_1165" data-name="Arrow 1165" d="M2928,424V401h.045l.136.183h.091l.136.183h.091l.181.229h.091l.045.092h.045l.045.092H2929l.045.091h.045l.045.092h.091l.181.229h.091l.045.092h.045l.045.091h.091l.136.183h.091l.136.183h.091l.181.229h.091l.136.183h.091l.136.183h.091l.136.183h.091l.181.229h.091l.136.183h.091l.136.183h.091l.136.183h.091l.181.229h.091l.136.183h.091l.136.183h.091l.136.183h.091l.181.229h.091l.136.183h.091l.136.183h.091l.136.183h.091l.181.229h.091l.136.183h.091l.136.183h.091l.136.183h.091l.181.229h.091l.045.092h.046l.045.092h.091l.136.183h.091l.136.183h.091l.181.229h.091l.136.183h.091l.136.183h.091l.136.183h.091l.181.229h.091l.136.183h.091l.136.183h.091l.136.183h.091l.181.229h.091l.136.183h.091l.136.183h.09l.045.092h.045l.045.092h.091l.181.229h.091l.136.183h.09l.136.183h.09l.136.183h.091l.181.229h.091l.136.183h.09l.046.092h.045l.045.092h.091l.136.183h.091l.181.229h.091l.045.092H2941l.045.092h.091l.136.183h.091l.136.183h.091l.181.229c.124.091.179.052.227.229Z" fill="#123347"/>
  </g>
</svg>
