<svg xmlns="http://www.w3.org/2000/svg" width="10.62" height="48.12" viewBox="0 0 10.62 48.12">
  <g id="Group_172" data-name="Group 172" transform="translate(-212.81 -494.95)">
    <rect id="Rectangle_4_copy" data-name="Rectangle 4 copy" width="4.24" height="4.24" rx="1.12" transform="translate(212.81 494.95)" fill="#7a8495"/>
    <path id="Rectangle_4_copy_15" data-name="Rectangle 4 copy 15" d="M1.13,0H3.12A1.12,1.12,0,0,1,4.24,1.12v2A1.12,1.12,0,0,1,3.12,4.24H1.13A1.13,1.13,0,0,1,0,3.11V1.13A1.13,1.13,0,0,1,1.13,0Z" transform="translate(219.19 494.95)" fill="#7a8495"/>
    <rect id="Rectangle_4_copy_16" data-name="Rectangle 4 copy 16" width="4.24" height="4.24" rx="1.12" transform="translate(212.81 501.32)" fill="#7a8495"/>
    <path id="Rectangle_4_copy_16-2" data-name="Rectangle 4 copy 16" d="M1.13,0H3.12A1.12,1.12,0,0,1,4.24,1.12v2A1.12,1.12,0,0,1,3.12,4.24H1.13A1.13,1.13,0,0,1,0,3.11V1.13A1.13,1.13,0,0,1,1.13,0Z" transform="translate(219.19 501.32)" fill="#7a8495"/>
    <rect id="Rectangle_4_copy_17" data-name="Rectangle 4 copy 17" width="4.24" height="4.24" rx="1.12" transform="translate(212.81 507.33)" fill="#7a8495"/>
    <path id="Rectangle_4_copy_17-2" data-name="Rectangle 4 copy 17" d="M1.13,0H3.12A1.12,1.12,0,0,1,4.24,1.12v2A1.12,1.12,0,0,1,3.12,4.24H1.13A1.13,1.13,0,0,1,0,3.11V1.13A1.13,1.13,0,0,1,1.13,0Z" transform="translate(219.19 507.33)" fill="#7a8495"/>
    <rect id="Rectangle_4_copy_17-3" data-name="Rectangle 4 copy 17" width="4.24" height="4.24" rx="1.12" transform="translate(212.81 513.7)" fill="#7a8495"/>
    <path id="Rectangle_4_copy_17-4" data-name="Rectangle 4 copy 17" d="M1.13,0H3.12A1.12,1.12,0,0,1,4.24,1.12v2A1.12,1.12,0,0,1,3.12,4.24H1.13A1.13,1.13,0,0,1,0,3.11V1.13A1.13,1.13,0,0,1,1.13,0Z" transform="translate(219.19 513.7)" fill="#7a8495"/>
    <rect id="Rectangle_4_copy_18" data-name="Rectangle 4 copy 18" width="4.24" height="4.24" rx="1.12" transform="translate(212.81 520.08)" fill="#7a8495"/>
    <path id="Rectangle_4_copy_18-2" data-name="Rectangle 4 copy 18" d="M1.13,0H3.12A1.12,1.12,0,0,1,4.24,1.12v2A1.12,1.12,0,0,1,3.12,4.24H1.13A1.13,1.13,0,0,1,0,3.11V1.13A1.13,1.13,0,0,1,1.13,0Z" transform="translate(219.19 520.08)" fill="#7a8495"/>
    <rect id="Rectangle_4_copy_18-3" data-name="Rectangle 4 copy 18" width="4.24" height="4.24" rx="1.12" transform="translate(212.81 526.45)" fill="#7a8495"/>
    <path id="Rectangle_4_copy_18-4" data-name="Rectangle 4 copy 18" d="M1.13,0H3.12A1.12,1.12,0,0,1,4.24,1.12v2A1.12,1.12,0,0,1,3.12,4.24H1.13A1.13,1.13,0,0,1,0,3.11V1.13A1.13,1.13,0,0,1,1.13,0Z" transform="translate(219.19 526.45)" fill="#7a8495"/>
    <rect id="Rectangle_4_copy_18-5" data-name="Rectangle 4 copy 18" width="4.24" height="4.24" rx="1.12" transform="translate(212.81 532.45)" fill="#7a8495"/>
    <path id="Rectangle_4_copy_18-6" data-name="Rectangle 4 copy 18" d="M1.13,0H3.12A1.12,1.12,0,0,1,4.24,1.12v2A1.12,1.12,0,0,1,3.12,4.24H1.13A1.13,1.13,0,0,1,0,3.11V1.13A1.13,1.13,0,0,1,1.13,0Z" transform="translate(219.19 532.45)" fill="#7a8495"/>
    <rect id="Rectangle_4_copy_18-7" data-name="Rectangle 4 copy 18" width="4.24" height="4.24" rx="1.12" transform="translate(212.81 538.83)" fill="#7a8495"/>
    <path id="Rectangle_4_copy_18-8" data-name="Rectangle 4 copy 18" d="M1.13,0H3.12A1.12,1.12,0,0,1,4.24,1.12v2A1.12,1.12,0,0,1,3.12,4.24H1.13A1.13,1.13,0,0,1,0,3.11V1.13A1.13,1.13,0,0,1,1.13,0Z" transform="translate(219.19 538.83)" fill="#7a8495"/>
  </g>
</svg>
