<svg xmlns="http://www.w3.org/2000/svg" xmlns:xlink="http://www.w3.org/1999/xlink" width="28.662" height="42.204" viewBox="0 0 28.662 42.204">
  <defs>
    <clipPath id="clip-path">
      <rect id="Rectangle_181" data-name="Rectangle 181" width="28.662" height="42.204" transform="translate(0 -2)" fill="#b1b3b9"/>
    </clipPath>
  </defs>
  <g id="Delete_Bin" data-name="Delete Bin" transform="translate(0 2)">
    <g id="Group_383" data-name="Group 383" clip-path="url(#clip-path)">
      <path id="Path_417" data-name="Path 417" d="M34.486,49.884q-.293,4-.587,8-.321,4.3-.649,8.607c-.149,1.985-.3,3.971-.436,5.956A3.3,3.3,0,0,1,29.5,75.5c-1.986.008-3.975,0-5.961,0q-4.489,0-8.98,0a3.293,3.293,0,0,1-3.235-2.493,8.947,8.947,0,0,1-.155-1.46c-.172-2.248-.33-4.5-.5-6.746q-.355-4.793-.716-9.585-.2-2.7-.408-5.4a.888.888,0,0,1,.967-1.027h11.52v0H33.456c.745,0,1.085.362,1.03,1.091" transform="translate(-7.685 -38.305)" fill="#b1b3b9"/>
      <path id="Path_418" data-name="Path 418" d="M27.044,4.016H21.782a.379.379,0,0,1,0-.109c.014-.194.006-.389,0-.583A3.348,3.348,0,0,0,18.455.01Q14.5-.013,10.546.01a3.333,3.333,0,0,0-3.086,2.1A3.655,3.655,0,0,0,7.207,3.5c0,.169.064.379,0,.513H1.616A1.616,1.616,0,0,0,0,5.634V6.679A1.95,1.95,0,0,0,.85,8.3a1.61,1.61,0,0,0,.766.193H27.044a1.629,1.629,0,0,0,.776-.2,1.949,1.949,0,0,0,.842-1.614V5.634a1.617,1.617,0,0,0-1.618-1.618m-17.826,0a.308.308,0,0,1-.006-.107c.014-.154,0-.311,0-.467a1.375,1.375,0,0,1,1.42-1.433c1.3,0,2.6,0,3.9,0v0c1.268,0,2.536,0,3.8,0A1.352,1.352,0,0,1,19.775,3.46c0,.181.068.412,0,.556Z" transform="translate(0 0)" fill="#b1b3b9"/>
    </g>
  </g>
</svg>
