<svg xmlns="http://www.w3.org/2000/svg" width="108" height="108" viewBox="0 0 108 108">
  <circle id="Ellipse_21" data-name="Ellipse 21" cx="54" cy="54" r="54" fill="#e8eef6"/>
  <path id="Icon_ionic-md-cart" data-name="Icon ionic-md-cart" d="M13.9,31.846a3.6,3.6,0,1,0,3.6,3.6A3.61,3.61,0,0,0,13.9,31.846ZM3.375,3.6V7.2h3.6l6.48,13.126-2.709,4.409a3.449,3.449,0,0,0-.45,1.71c0,2.41,1.646,3.6,3.879,3.6H35.221V26.585H14.616a.425.425,0,0,1-.45-.45,2.245,2.245,0,0,1,.191-.45l1.8-2.838H29.565a3.531,3.531,0,0,0,3.15-1.89L39.195,9.81a2.1,2.1,0,0,0,.18-.9,1.731,1.731,0,0,0-1.8-1.71H10.935L9.225,3.6ZM31.621,31.846a3.6,3.6,0,1,0,3.6,3.6A3.61,3.61,0,0,0,31.621,31.846Z" transform="translate(32.625 32.226)" fill="#2d4c86"/>
</svg>
