<svg xmlns="http://www.w3.org/2000/svg" width="89.581" height="78.386" viewBox="0 0 89.581 78.386">
  <path id="Icon_awesome-camera" data-name="Icon awesome-camera" d="M89.581,21.846v50.39a8.4,8.4,0,0,1-8.4,8.4H8.4a8.4,8.4,0,0,1-8.4-8.4V21.846a8.4,8.4,0,0,1,8.4-8.4H23.8L25.952,7.69A8.387,8.387,0,0,1,33.8,2.25H55.761a8.387,8.387,0,0,1,7.856,5.441l2.17,5.756h15.4a8.4,8.4,0,0,1,8.394,8.4Zm-23.8,25.195a21,21,0,1,0-21,21,21,21,0,0,0,21-21Zm-5.6,0a15.413,15.413,0,1,1,.006,0Z" transform="translate(0 -2.25)" fill="#fff" opacity="0.78"/>
</svg>
