<svg xmlns="http://www.w3.org/2000/svg" width="48" height="50.05" viewBox="0 0 48 50.05">
  <g id="Group_152" data-name="Group 152" transform="translate(-257.71)">
    <path id="Rectangle_3_copy_4" data-name="Rectangle 3 copy 4" d="M0,0H41.75A6.25,6.25,0,0,1,48,6.25V43.8a6.25,6.25,0,0,1-6.25,6.25H0a0,0,0,0,1,0,0V0A0,0,0,0,1,0,0Z" transform="translate(257.71)" fill="#5b7abe"/>
    <path id="Icon_awesome-caret-down" data-name="Icon awesome-caret-down" d="M2.2,13.5H20.292a1.4,1.4,0,0,1,.991,2.4l-9.042,9.049a1.409,1.409,0,0,1-1.99,0L1.209,15.9A1.4,1.4,0,0,1,2.2,13.5Z" transform="translate(270.964 7.38)" fill="#fff"/>
  </g>
</svg>
