<svg xmlns="http://www.w3.org/2000/svg" width="47.59" height="60" viewBox="0 0 47.59 60">
  <g id="Group_263" data-name="Group 263" transform="translate(-1523 -577.5)">
    <g id="Group_262" data-name="Group 262" transform="translate(65 -26)">
      <path id="Rectangle_3316_copy" data-name="Rectangle 3316 copy" d="M0,0H40.18a7,7,0,0,1,7,7V53a7,7,0,0,1-7,7H0a0,0,0,0,1,0,0V0A0,0,0,0,1,0,0Z" transform="translate(1458.41 603.5)" fill="#ebeced"/>
      <path id="Arrow_3318" data-name="Arrow 3318" d="M1474.764,628.7h14.377v.028l-.115.084v.056l-.115.084V629l-.143.112v.056l-.057.028v.028l-.057.028v.056l-.057.028v.028l-.057.028v.056l-.143.112v.056l-.057.028v.028l-.057.028v.056l-.115.084v.056l-.114.084v.056l-.143.112v.056l-.115.084v.056l-.115.084v.056l-.114.084v.056l-.143.112v.056l-.115.084v.056l-.114.084v.056l-.115.084v.056l-.143.112v.056l-.114.084v.056l-.115.084v.056l-.115.084v.056l-.143.112v.056l-.115.084v.056l-.115.084v.056l-.115.084v.056l-.143.112v.056l-.115.084v.056l-.115.084v.056l-.115.084v.056l-.143.112v.056l-.057.028v.028l-.057.028v.056l-.114.084v.056l-.115.084v.056l-.143.112v.056l-.115.084v.056l-.115.084V634l-.115.084v.056l-.143.112v.056l-.115.084v.056l-.115.084v.056l-.115.084v.056l-.143.112v.056l-.115.084v.056l-.115.084v.056l-.057.028v.028l-.057.028v.056l-.143.112v.056l-.115.084v.056l-.115.084v.056l-.115.084v.056l-.143.112v.056l-.114.084v.056l-.057.028v.028l-.057.028v.056l-.115.084v.056l-.143.112v.056l-.057.028v.028l-.057.028v.056l-.115.084v.056l-.114.084v.056l-.143.112c-.057.076-.033.11-.143.14Z" fill="#2d4c86" stroke="#000006" stroke-width="1"/>
      <rect id="Rectangle_124" data-name="Rectangle 124" width="1" height="60" transform="translate(1458 603.5)" fill="#c5c6ca"/>
    </g>
  </g>
</svg>
