<svg xmlns="http://www.w3.org/2000/svg" width="15.375" height="9.377" viewBox="0 0 15.375 9.377">
  <path id="Arrow_3_copy_2" data-name="Arrow 3 copy 2" d="M2802.625,47.507H2818v.03l-.123.091v.061l-.123.091v.061l-.153.121v.061l-.061.03v.03l-.061.031v.06l-.061.03v.031l-.062.03v.061l-.153.121v.061l-.061.03v.031l-.061.03v.061l-.123.091v.061l-.123.091v.061l-.153.121v.061l-.123.091v.06l-.123.091v.061l-.123.091V49.6l-.153.121v.061l-.123.091v.061l-.123.091v.061l-.122.091v.061l-.153.121v.061l-.123.091v.061l-.123.091v.061l-.122.091v.061l-.153.121v.061l-.123.091v.06l-.122.091v.061l-.123.091v.061l-.153.121v.061l-.123.091v.06l-.122.091V52l-.123.091v.06l-.153.122v.061l-.061.03v.031l-.061.03v.061l-.123.091v.061l-.123.091v.061l-.153.121v.061l-.123.091v.061l-.122.091v.061l-.123.091v.061l-.153.121v.061l-.122.091v.061l-.123.091v.061l-.123.091v.061l-.153.121v.061l-.122.091v.06l-.123.091v.06l-.061.03v.03l-.061.03V54.7l-.153.121v.061l-.123.091v.061l-.123.091v.06l-.123.091v.06l-.153.121v.061l-.123.091v.06l-.061.03v.03l-.061.03v.061l-.122.091v.061l-.153.121v.061l-.062.03v.03l-.061.03v.061l-.123.091v.061l-.123.091v.061l-.153.121c-.061.083-.035.12-.153.152Z" transform="translate(-2802.625 -47.507)" fill="#898b91"/>
</svg>
