<svg xmlns="http://www.w3.org/2000/svg" width="61.04" height="61.61" viewBox="0 0 61.04 61.61">
  <g id="Group_264" data-name="Group 264" transform="translate(-2656 -1434)">
    <g id="Group_263" data-name="Group 263" transform="translate(58.78 -14.64)">
      <g id="Group_262" data-name="Group 262">
        <path id="Rectangle_1750_copy_38" data-name="Rectangle 1750 copy 38" d="M0,0H55.42a5.62,5.62,0,0,1,5.62,5.62V55.99a5.62,5.62,0,0,1-5.62,5.62H0a0,0,0,0,1,0,0V0A0,0,0,0,1,0,0Z" transform="translate(2597.22 1448.64)" fill="#2d4c86"/>
      </g>
      <path id="Arrow_1195" data-name="Arrow 1195" d="M2911.125,258.918h20.625v.041l-.164.124v.083l-.164.124v.082l-.206.165v.083l-.082.041v.041l-.082.041v.083l-.082.041v.041l-.082.041v.082l-.206.165v.082l-.082.041v.041l-.082.041v.082l-.164.124v.083l-.164.124v.083l-.205.165v.082l-.165.124v.082l-.164.124v.083l-.164.124v.082l-.205.165v.083l-.164.124v.083l-.164.124v.083l-.165.124v.083l-.205.165v.082l-.164.124v.082l-.164.124v.083l-.164.124v.082l-.206.165v.082l-.164.124v.083l-.164.124v.083l-.164.124v.082l-.206.165v.083l-.164.124v.082l-.164.124v.083l-.165.124v.083l-.205.165v.082l-.082.041v.041l-.082.041v.083l-.164.124v.082l-.165.124v.083l-.205.165v.082l-.164.124v.082l-.165.124v.082l-.164.124v.083l-.205.165v.082l-.164.124v.083l-.164.124v.083l-.164.124v.083l-.206.165v.083l-.164.124v.082l-.164.124v.083l-.082.041v.041l-.082.041v.082l-.206.165v.082l-.164.124v.083l-.164.124v.082l-.164.124v.083l-.206.165v.083l-.164.124v.082l-.082.041v.041l-.082.041v.082l-.164.124v.083l-.205.165v.082l-.082.041v.041l-.082.041v.083l-.164.124v.083l-.164.124v.082l-.205.165c-.082.113-.047.163-.206.207Z" transform="translate(-293.697 1213.928)" fill="#fff"/>
    </g>
    <path id="Path_113" data-name="Path 113" d="M0,0H1V61.61H0Z" transform="translate(2656 1434)" fill="#fff"/>
  </g>
</svg>
