<svg xmlns="http://www.w3.org/2000/svg" xmlns:xlink="http://www.w3.org/1999/xlink" width="55.02" height="55.07" viewBox="0 0 55.02 55.07">
  <defs>
    <clipPath id="clip-path">
      <rect id="Rectangle_179" data-name="Rectangle 179" width="26.98" height="27.001"/>
    </clipPath>
  </defs>
  <g id="Modifier" transform="translate(4010.51 -21186)">
    <path id="Rectangle_1454_copy_23" data-name="Rectangle 1454 copy 23" d="M6,0H49.02a6,6,0,0,1,6,6V49.07a6,6,0,0,1-6,6H6a6,6,0,0,1-6-6V6A6,6,0,0,1,6,0Z" transform="translate(-4010.51 21186)" fill="#c4c6ca"/>
    <g id="Group_384" data-name="Group 384" transform="translate(-3996.49 21200.93)" opacity="0.33">
      <g id="Group_373" data-name="Group 373" clip-path="url(#clip-path)">
        <path id="Path_413" data-name="Path 413" d="M11.565,7.709h3.856c0-.118,0-.233,0-.348a21.241,21.241,0,0,1,.131-2.7A5.724,5.724,0,0,1,21.2.005a5.783,5.783,0,1,1-.028,11.566c-.62,0-1.241,0-1.878,0v3.855c.107,0,.222,0,.337,0a22.929,22.929,0,0,1,2.7.13,5.7,5.7,0,0,1,4.6,4.9,5.775,5.775,0,1,1-11.451,1.5c-.075-.675-.045-1.362-.061-2.044,0-.2,0-.4,0-.613H11.565c0,.107,0,.223,0,.338a21.3,21.3,0,0,1-.132,2.7,5.72,5.72,0,0,1-5.648,4.657,5.783,5.783,0,1,1,.029-11.566c.62,0,1.241,0,1.878,0V11.572c-.108,0-.223,0-.338,0a19.854,19.854,0,0,1-2.7-.132A5.718,5.718,0,0,1,0,5.611a5.783,5.783,0,0,1,11.563.12c.007.65,0,1.3,0,1.979m.016,7.7H15.4V11.586H11.581Zm7.7-7.7c.713,0,1.394.028,2.072-.007A1.913,1.913,0,0,0,23.13,5.719a1.934,1.934,0,0,0-1.853-1.857,1.913,1.913,0,0,0-1.989,1.771c-.035.678-.007,1.36-.007,2.077M7.7,19.283c-.674,0-1.314-.009-1.954,0a1.927,1.927,0,0,0-.091,3.849A1.9,1.9,0,0,0,7.69,21.418c.054-.7.01-1.4.01-2.135m0-11.571c0-.72.034-1.411-.008-2.1A1.908,1.908,0,0,0,5.689,3.863a1.925,1.925,0,0,0-.037,3.843c.67.029,1.341.006,2.051.006M19.277,19.294c0,.667-.007,1.3,0,1.929a1.927,1.927,0,0,0,3.848.137,1.9,1.9,0,0,0-1.692-2.054c-.7-.062-1.417-.012-2.158-.012" transform="translate(0 0)"/>
      </g>
    </g>
  </g>
</svg>
