<svg xmlns="http://www.w3.org/2000/svg" xmlns:xlink="http://www.w3.org/1999/xlink" width="58.412" height="61.806" viewBox="0 0 58.412 61.806">
  <defs>
    <clipPath id="clip-path">
      <rect id="Rectangle_79" data-name="Rectangle 79" width="53.451" height="61.806" fill="none" stroke="#707070" stroke-width="1"/>
    </clipPath>
  </defs>
  <g id="Group_137" data-name="Group 137" transform="translate(-2205 -188.614)">
    <g id="Group_135" data-name="Group 135" transform="translate(2209.961 188.614)">
      <g id="Group_134" data-name="Group 134" clip-path="url(#clip-path)">
        <path id="Path_62" data-name="Path 62" d="M66.521,28.016q.005-10.5,0-21A7.091,7.091,0,0,0,59.374,0C53.739-.006,48.1,0,42.457,0Q34.9,0,27.347,0a7.112,7.112,0,0,0-7.023,5.826,8.235,8.235,0,0,0-.106,1.476V10.8a1.674,1.674,0,1,0,3.347,0V7.3a3.72,3.72,0,0,1,3.867-3.93q15.964-.021,31.924,0A3.7,3.7,0,0,1,63.17,7.24c.007,5.47.007,36.095,0,42.906A3.734,3.734,0,0,1,59.194,53.8c-1.469,0-6.25-.011-6.25-.011l-12.714,0a1.673,1.673,0,0,0-1.672,1.674V55.5a1.676,1.676,0,0,0,1.674,1.674c4.99.008,17.391.015,19.333-.02a7.072,7.072,0,0,0,6.96-7.14c0-.907,0-1.819,0-2.73Z" transform="translate(-13.079 0)" fill="#1b334b"/>
        <path id="Path_63" data-name="Path 63" d="M108.81,152.337c-.519,0-1.285,0-2.232,0v-.007s.932,0,2.232,0" transform="translate(-68.944 -98.543)" fill="#010101"/>
        <path id="Path_64" data-name="Path 64" d="M151.356,128.725c0-.058,0-.115-.009-.173v1.894c0-.575,0-1.146.009-1.721" transform="translate(-97.905 -83.159)" fill="#010101"/>
        <path id="Path_65" data-name="Path 65" d="M12.951,151.439a16.2,16.2,0,0,1-2.012-.651,6.431,6.431,0,1,1,3.725.57,1.712,1.712,0,0,0-.257.081Zm4.309-6.39a3.552,3.552,0,1,0-3.66,3.486,3.575,3.575,0,0,0,3.66-3.486" transform="translate(-4.709 -89.633)" fill="#2c4c85"/>
        <path id="Path_69" data-name="Path 69" d="M10.691,62c0,4.11,0,5.22,0,9.331,0,.593,0,.564-.584.543a20.306,20.306,0,0,0-2.267.014c-.427.032-.52-.088-.519-.484.01-4.383.006-5.766.006-10.15,0-3.5,0-7.007.007-10.511a.662.662,0,0,0-.355-.65Q3.929,48.194.9,46.266a1.67,1.67,0,0,1-.485-2.572,1.622,1.622,0,0,1,1.9-.456,3.929,3.929,0,0,1,.558.3C5.126,44.96,7.374,46.395,9.643,47.8A2.057,2.057,0,0,1,10.7,49.712c-.014,4.095-.006,8.19-.006,12.285" transform="translate(0 -27.884)" fill="#1b334b"/>
        <g id="Rectangle_80" data-name="Rectangle 80" transform="translate(18.039 36.386)" fill="none" stroke="#1b334b" stroke-width="2">
          <rect width="14" height="13" rx="2" stroke="none"/>
          <rect x="1" y="1" width="12" height="11" rx="1" fill="none"/>
        </g>
        <g id="Rectangle_81" data-name="Rectangle 81" transform="translate(34.039 36.386)" fill="none" stroke="#1b334b" stroke-width="2">
          <rect width="14" height="13" rx="2" stroke="none"/>
          <rect x="1" y="1" width="12" height="11" rx="1" fill="none"/>
        </g>
        <g id="Rectangle_82" data-name="Rectangle 82" transform="translate(24.039 21.386)" fill="none" stroke="#1b334b" stroke-width="2">
          <rect width="17" height="14" rx="2" stroke="none"/>
          <rect x="1" y="1" width="15" height="12" rx="1" fill="none"/>
        </g>
      </g>
    </g>
    <circle id="Ellipse_12" data-name="Ellipse 12" cx="14" cy="14" r="14" transform="translate(2205 222)" fill="#2c4c85"/>
    <g id="Group_136" data-name="Group 136" transform="translate(-20.754 -22.753)">
      <rect id="Rectangle_83" data-name="Rectangle 83" width="3.462" height="19.041" transform="translate(2238.022 250.233)" fill="#fff"/>
      <rect id="Rectangle_84" data-name="Rectangle 84" width="3.462" height="19.041" transform="translate(2249.273 258.022) rotate(90)" fill="#fff"/>
    </g>
  </g>
</svg>
