<svg xmlns="http://www.w3.org/2000/svg" xmlns:xlink="http://www.w3.org/1999/xlink" width="85.286" height="80.231" viewBox="0 0 85.286 80.231">
  <defs>
    <clipPath id="clip-path">
      <rect id="Rectangle_89" data-name="Rectangle 89" width="85.286" height="80.231" transform="translate(0 -8)" fill="#1b334b"/>
    </clipPath>
  </defs>
  <g id="Group_149" data-name="Group 149" transform="translate(0 8)">
    <g id="Group_148" data-name="Group 148" clip-path="url(#clip-path)">
      <path id="Path_86" data-name="Path 86" d="M75.694,208.855c-1.629-3.33-4.757-4.491-8.841-3.234-4.854,1.5-9.693,3.04-14.553,4.515a3.349,3.349,0,0,1-2.027.115c-4.626-1.875-9.208-3.865-13.82-5.779a18,18,0,0,0-12.084-.747c-2.634.741-5.3,1.379-8.112,2.1-.66-2.83-.983-3.256-2.969-3.292-3.554-.067-7.109-.03-10.663-.014-1.776.008-2.624.886-2.618,2.715Q.049,217.6,0,229.956c-.012,1.976.9,2.8,2.777,2.792,2.828-.01,5.656,0,8.481,0,3.9,0,3.9,0,5.022-3.619,8.566,1.463,17.159,2.856,25.719,4.42a15.668,15.668,0,0,0,12.4-2.674q9.3-6.567,18.566-13.178c3.3-2.358,4.283-5.662,2.729-8.843M11.548,228.519H4.233V206.841h7.315Zm58.947-14.006q-9.389,6.649-18.769,13.3a10.23,10.23,0,0,1-7.819,1.788c-8.833-1.469-17.661-2.961-26.474-4.529a2.109,2.109,0,0,1-1.4-1.433c-.111-4.43-.065-8.863-.065-13.469,3.936-1,7.71-2.242,11.582-2.83a14.762,14.762,0,0,1,6.612.815c4.122,1.377,8.126,3.118,12.123,4.84.717.309,1.157,1.257,1.726,1.909-.872.317-1.8,1.005-2.61.892-4.311-.6-8.6-1.4-12.888-2.142-1.445-.25-2.915-.359-3.3,1.451-.434,2.033,1.153,2.412,2.642,2.654,4.618.747,9.238,1.494,13.869,2.16,3.211.464,5.189-.908,6.354-3.908a3.7,3.7,0,0,1,1.968-1.964c4.652-1.589,9.374-2.969,14.048-4.5,1.574-.517,2.864-.478,3.738,1.1.971,1.76.038,2.882-1.336,3.855" transform="translate(0 -161.626)" fill="#1b334b"/>
      <path id="Path_87" data-name="Path 87" d="M177.324,1.413a17.791,17.791,0,0,1,14.938,8.133l-.105.1a4.589,4.589,0,0,0-1.008,5.48q-2.021,0-4.037,0c-.066,0-.134,0-.207,0h-.015c-.119,0-.265-.008-.43-.008h-.006a5.024,5.024,0,0,0-3.628,1.343,4.679,4.679,0,0,0-1.374,3.512,4.629,4.629,0,0,0,1.4,3.372,5.058,5.058,0,0,0,3.616,1.314c.14,0,.269,0,.38-.006.071,0,.143,0,.2,0q2.059,0,4.12,0a4.526,4.526,0,0,0,.539,5A17.781,17.781,0,1,1,177.324,1.413m0-1.413a19.192,19.192,0,1,0,16.218,29.459,3.5,3.5,0,0,1-.529-.46c-1.1-1.153-1.574-3.078.4-5.02.25-.246.5-.492.749-.741q-3.554,0-7.111,0c-.067,0-.151,0-.234,0-.1,0-.219.006-.346.006a3.649,3.649,0,0,1-2.636-.918,3.244,3.244,0,0,1-.969-2.374,3.3,3.3,0,0,1,.951-2.485,3.622,3.622,0,0,1,2.644-.938c.144,0,.276,0,.392.008.093,0,.178,0,.26,0q2.412,0,4.828,0h2.226l-.7-.682a3.978,3.978,0,0,1-1.4-2.824,3.241,3.241,0,0,1,1.072-2.368,3.518,3.518,0,0,1,1.025-.692A19.19,19.19,0,0,0,177.324,0" transform="translate(-126.213)" fill="#1b334b"/>
      <path id="Path_88" data-name="Path 88" d="M296.976,70.366h-.021a2.231,2.231,0,0,1-1.616-.749c-.479-.5-1.4-1.857.375-3.606.818-.806,1.633-1.616,2.488-2.469h-2.074q-3.741,0-7.482,0l-.261,0a2.961,2.961,0,0,1-2.258-.631,2.258,2.258,0,0,1-.658-1.66,2.313,2.313,0,0,1,.649-1.751,2.955,2.955,0,0,1,2.3-.642c.1,0,.2.006.29.006q3.3-.009,6.6-.006h2.929c-.845-.83-1.654-1.624-2.465-2.414a3.018,3.018,0,0,1-1.1-2.1,2.257,2.257,0,0,1,.76-1.643c.5-.476,1.841-1.392,3.6.383l.347.349c1.887,1.9,3.839,3.869,5.782,5.773a2.779,2.779,0,0,1,.975,2,2.716,2.716,0,0,1-.932,1.94c-1.992,1.951-3.992,3.967-5.927,5.916l-.294.3a2.9,2.9,0,0,1-2.006,1" transform="translate(-227.849 -41.537)" fill="#1b334b"/>
    </g>
  </g>
</svg>
