<svg xmlns="http://www.w3.org/2000/svg" xmlns:xlink="http://www.w3.org/1999/xlink" width="65.934" height="69" viewBox="0 0 65.934 69">
  <defs>
    <clipPath id="clip-path">
      <rect id="Rectangle_86" data-name="Rectangle 86" width="65.934" height="69" transform="translate(-4.248 -4)" fill="#1b334b"/>
    </clipPath>
  </defs>
  <g id="Group_143" data-name="Group 143" transform="translate(4.248 4)">
    <g id="Group_142" data-name="Group 142" clip-path="url(#clip-path)">
      <path id="Path_72" data-name="Path 72" d="M46.719,70.351V47.7a1.573,1.573,0,0,0-1.437-1.68h-.5A1.573,1.573,0,0,0,43.341,47.7c0,10.226,0,21.662-.007,25.509a3.757,3.757,0,0,1-4.009,3.667c-1.481,0-3.727,0-5.547-.008-.215,0-.426,0-.625,0h-.131c-.524,0-1.3,0-2.253,0-6.43,0-21.1.008-23.307,0a3.78,3.78,0,0,1-4.08-4.036V30.294a3.742,3.742,0,0,1,3.9-3.938q9.129-.011,18.26-.008a1.7,1.7,0,0,0,0-3.36h-3.1q-7.621,0-15.245,0A7.161,7.161,0,0,0,.112,28.822a8.389,8.389,0,0,0-.1,1.48Q0,51.657,0,73.009a7.135,7.135,0,0,0,7.283,7.232c2.364.008,18.471.016,24.368.016h.225c1.944.012,5.658.019,7.824-.02a7.11,7.11,0,0,0,7.021-7.154c0-.911,0-1.822,0-2.733" transform="translate(0 -15.266)" fill="#1b334b"/>
      <path id="Path_73" data-name="Path 73" d="M91.637,183.446s.941,0,2.251,0c-.524,0-1.3,0-2.251,0Z" transform="translate(-60.867 -121.848)" fill="#1b334b"/>
      <path id="Path_74" data-name="Path 74" d="M139.14,158.566c0-.058,0-.115-.009-.173v1.9c0-.576,0-1.148.009-1.724" transform="translate(-92.413 -105.207)" fill="#1b334b"/>
      <path id="Path_75" data-name="Path 75" d="M114.852,18.764c2.156-2.2,4.029-4.1,5.891-6.005.709-.728,1.508-1.379,2.4-.446.809.843.218,1.61-.465,2.288-2.646,2.626-5.294,5.25-7.9,7.911-.923.942-1.708,1.045-2.676.057-2.647-2.7-5.335-5.365-8.02-8.03-.7-.7-1.2-1.482-.352-2.288s1.611-.242,2.29.447c1.9,1.929,3.817,3.839,6.056,6.088V15.6q0-6.593,0-13.186c0-1.034-.239-2.4,1.288-2.417,1.663-.021,1.373,1.42,1.376,2.5.013,4.785,0,9.569.009,14.354,0,.511.051,1.022.1,1.914" transform="translate(124.937 96.915) rotate(-141)" fill="#2c4c85" stroke="#2c4c85" stroke-width="2"/>
      <path id="Path_76" data-name="Path 76" d="M32.262,59.638c-1.99,0-3.981-.009-5.971.008-.353,0-.426-.088-.418-.381.019-.734,0-.735.838-.735,3.813,0,7.627,0,11.44-.007.4,0,.559.059.535.45-.041.664-.01.665-.771.665H32.262" transform="translate(-17.185 -38.872)" fill="#1b334b"/>
      <path id="Path_77" data-name="Path 77" d="M34.55,80.516c2.7,0,5.395.009,8.092-.009.505,0,.615.1.6.4-.028.725-.005.725-1.14.725q-7.814,0-15.628.008c-.5,0-.614-.093-.6-.4.028-.728.005-.728,1.14-.728H34.55" transform="translate(-17.186 -53.474)" fill="#1b334b"/>
      <path id="Path_78" data-name="Path 78" d="M35.878,91.53c3.11,0,6.22.01,9.33-.009.582,0,.71.1.7.4-.033.725-.006.725-1.315.725q-9.01,0-18.02.008c-.576,0-.708-.093-.695-.4.032-.727.006-.727,1.314-.727h8.689" transform="translate(-17.186 -60.79)" fill="#1b334b"/>
      <path id="Path_79" data-name="Path 79" d="M33.507,69.514c2.393,0,4.785.006,7.178-.007.381,0,.49.073.484.356-.014.769,0,.769-1.054.769q-6.852,0-13.7.007c-.421,0-.554-.072-.541-.393.031-.731.007-.732,1-.732h6.634" transform="translate(-17.183 -46.168)" fill="#1b334b"/>
      <path id="Path_80" data-name="Path 80" d="M35.168,113.067H24.8c-.607,0-.734.128-.735.741q0,4.833,0,9.666c0,.6.145.741.745.741H40.839c.591,0,.847.138.814.471-.05.507-.448.443-.794.443H24.748a1.435,1.435,0,0,1-1.611-1.567c-.011-3.295-.024-6.589.008-9.884a11.344,11.344,0,0,0-.556-2.748,1.379,1.379,0,0,1,1.092-1.9q4.263-1.155,8.531-2.294,5-1.338,10-2.668a1.354,1.354,0,0,1,1.824,1.082c.587,2.208,1.189,4.412,1.768,6.622a.491.491,0,0,0,.419.407,1.363,1.363,0,0,1,1.075,1.359q.014,5.094,0,10.189a1.379,1.379,0,0,1-1.419,1.4c-.595.01-1.19,0-1.785,0-.319,0-.607-.058-.607-.45s.267-.469.6-.466c.552.005,1.1.006,1.655,0,.464-.005.628-.166.628-.63q0-4.942,0-9.884c0-.487-.156-.633-.661-.633q-5.269,0-10.537,0m8.243-6.653c-.093-.343-.166-.638-.252-.928-.16-.541-.275-.6-.811-.461q-6.611,1.764-13.222,3.53-2.573.687-5.144,1.381c-.313.084-.607.192-.517.6.082.376.193.747.293,1.131.1-.022.151-.033.206-.047q4.514-1.2,9.028-2.413c.34-.091.668-.131.776.287.1.394-.2.522-.517.607q-2.121.565-4.241,1.134l-3,.806a.31.31,0,0,0,.22.08q4.223,0,8.446,0a2.618,2.618,0,0,0,.641-.095c1.038-.269,2.073-.548,3.109-.826,1.105-.3,2.209-.6,3.315-.893.495-.132.764-.048.826.278.083.437-.244.532-.563.619-.28.076-.561.145-.841.221q-1.139.308-2.276.619l.015.047h6.023l-.416-1.553c-.3.079-.569.147-.834.217a.445.445,0,0,1-.616-.313c-.086-.311.1-.5.379-.583.261-.08.526-.147.818-.227l-.625-2.311c-1.053.281-2.061.55-3.068.82q-2.141.574-4.281,1.15c-.328.088-.673.131-.781-.291-.1-.4.21-.522.521-.605.364-.1.728-.193,1.092-.291l6.3-1.689" transform="translate(-13.942 -67.64)" fill="#1b334b"/>
      <path id="Path_81" data-name="Path 81" d="M61.034,145.38a3.958,3.958,0,1,1-3.927-3.978,3.956,3.956,0,0,1,3.927,3.978m-3.952,3.031a3.047,3.047,0,1,0,0-6.094,3.047,3.047,0,0,0,0,6.094" transform="translate(-35.573 -94.236)" fill="#1b334b"/>
    </g>
  </g>
</svg>
