<svg xmlns="http://www.w3.org/2000/svg" xmlns:xlink="http://www.w3.org/1999/xlink" width="69.821" height="68.806" viewBox="0 0 69.821 68.806">
  <defs>
    <clipPath id="clip-path">
      <rect id="Rectangle_85" data-name="Rectangle 85" width="56.821" height="57.966" fill="none" stroke="#2c4c85" stroke-width="1"/>
    </clipPath>
  </defs>
  <g id="Group_141" data-name="Group 141" transform="translate(-2386 -182)">
    <g id="Group_139" data-name="Group 139" transform="translate(2399 182)">
      <g id="Group_138" data-name="Group 138" clip-path="url(#clip-path)">
        <path id="Path_70" data-name="Path 70" d="M56.774,48.661V45.681H53.556c.008,2.171.056,4.266-.023,6.356a2.935,2.935,0,0,1-2.783,2.8,5.853,5.853,0,0,1-.64.033q-21.718,0-43.437,0A3.1,3.1,0,0,1,3.532,53.1,3.906,3.906,0,0,1,3.2,51.526Q3.178,35.64,3.194,19.755a3.11,3.11,0,0,1,3.322-3.328q21.863-.009,43.728,0a3.113,3.113,0,0,1,3.33,3.369q0,2.916,0,5.83c0,.1-.009.19-.019.3h3.221q0-3.06,0-6.123c0-3.279-1.871-5.836-4.875-6.448a16.88,16.88,0,0,0-3.768-.176,1.608,1.608,0,0,1-1.681-.944C44.329,8.483,42.139,4.77,39.967,1.049A1.682,1.682,0,0,0,37.35.437c-.162.106-.321.22-.48.33-2.514,1.724-5.026,3.448-7.591,5.207-.176-.209-.315-.368-.45-.533-1.3-1.575-2.587-3.155-3.888-4.727a1.548,1.548,0,0,0-2.509-.14c-.114.107-.221.218-.332.329Q16.307,6.774,10.519,12.651a1.551,1.551,0,0,1-1.272.516c-1.048-.034-2.1-.019-3.148.006a6.043,6.043,0,0,0-3.973,1.576A6.55,6.55,0,0,0,0,19.964Q.033,35.091.011,50.22c0,.583,0,1.165.023,1.748A6.2,6.2,0,0,0,6.2,57.957q22.185.019,44.37,0a6.175,6.175,0,0,0,6.163-5.8c.076-1.16.044-2.33.044-3.5M37.917,3.92l5.423,9.236c-2.768,0-5.369,0-7.97-.006A.6.6,0,0,1,34.958,13c-1.229-1.47-2.442-2.953-3.687-4.465l6.646-4.62m-14.186.305L30.964,13.1H14.6l9.128-8.878" transform="translate(0 0)" fill="#1b334b"/>
        <path id="Path_71" data-name="Path 71" d="M257,187.788c-3.321,0-9.912-.011-13.234.009a6.624,6.624,0,0,0-1.548.224,6.33,6.33,0,0,0-4.668,6.613,6.256,6.256,0,0,0,5.94,5.744c3.416.064,10.105.028,13.524.033a2.163,2.163,0,0,0,.336-.056V187.821c-.162-.016-.255-.033-.35-.033m-12.915,8.624a2.312,2.312,0,1,1,2.313-2.272,2.3,2.3,0,0,1-2.313,2.272" transform="translate(-200.525 -158.537)" fill="#2c4c85"/>
      </g>
    </g>
    <circle id="Ellipse_13" data-name="Ellipse 13" cx="14" cy="14" r="14" transform="translate(2386 222.806)" fill="#2c4c85"/>
    <g id="Group_140" data-name="Group 140" transform="translate(160.246 -21.947)">
      <rect id="Rectangle_83" data-name="Rectangle 83" width="3.462" height="19.041" transform="translate(2238.022 250.233)" fill="#fff"/>
      <rect id="Rectangle_84" data-name="Rectangle 84" width="3.462" height="19.041" transform="translate(2249.273 258.022) rotate(90)" fill="#fff"/>
    </g>
  </g>
</svg>
