<svg xmlns="http://www.w3.org/2000/svg" width="17.25" height="12.752" viewBox="0 0 17.25 12.752">
  <path id="Arrow_4_copy" data-name="Arrow 4 copy" d="M631.8,615.106a1.262,1.262,0,0,1-1.058-.491l-.035-.14h-.035v-.07h-.035v-.14a1.187,1.187,0,0,1-.035-.527h.035l.106-.316,3.6-3.615H622.1v-.035h-.141v-.035l-.212-.07-.07-.105H621.6v-.035l-.106-.07v-.07l-.071-.035v-.07l-.071-.035v-.105h-.035v-.07h-.035v-.175h-.035l.035-.492h.035v-.07h.035v-.105h.035l.035-.105.071-.035v-.07l.106-.07v-.035h.071l.07-.105.141-.035v-.035h.071V607.7a4.332,4.332,0,0,1,1.129-.035h11.253v-.035a2.118,2.118,0,0,1-.388-.386l-.635-.6-.212-.246-1.27-1.229-.353-.386a4.867,4.867,0,0,1-.67-.7l-.071-.035v-.07H630.7l-.035-.141h-.035a1.782,1.782,0,0,1-.035-.632h.035v-.14h.035l.035-.14h.035v-.07l.106-.07v-.07l.071-.07h.07l.071-.105.317-.106V602.4h.177v-.035a.8.8,0,0,1,.423.07l.317.106.706.667,4.057,4.072.318.281.741.772c.125.124.36.249.388.456a1.075,1.075,0,0,0-.212.21l-.494.491-1.094,1.053-.494.526-2.575,2.527-1.2,1.229h-.071l-.071.105h-.07v.035l-.141.035v.035C631.988,615.076,631.867,615.044,631.8,615.106Z" transform="translate(-621.25 -602.354)" fill="#2754d0"/>
</svg>
