<svg xmlns="http://www.w3.org/2000/svg" width="20.625" height="12.753" viewBox="0 0 20.625 12.753">
  <path id="Arrow_1195" data-name="Arrow 1195" d="M2911.125,249.918h20.625v.041l-.164.124v.083l-.164.124v.082l-.206.165v.083l-.082.041v.041l-.082.041v.083l-.082.041v.041l-.082.041v.082l-.206.165v.083l-.082.041v.041l-.082.041v.083l-.164.124v.082l-.164.124v.082l-.205.165v.082l-.165.124v.083l-.164.124v.083l-.164.124v.082l-.205.165v.083l-.164.124v.083l-.164.124v.082l-.165.124v.083l-.205.165v.082l-.164.124v.083l-.164.124v.083l-.164.124v.082l-.206.165v.083l-.164.124v.083l-.164.124v.082l-.164.124v.082l-.206.165v.083l-.164.124v.082l-.164.124v.083l-.165.124v.083l-.205.165v.082l-.082.041v.041l-.082.041v.083l-.164.124v.082l-.165.124v.083l-.205.165v.083l-.164.124v.082l-.165.124v.082l-.164.124v.082l-.205.165v.082l-.164.124v.083l-.164.124v.083l-.164.124v.083l-.206.165v.083l-.164.124v.082l-.164.124v.083l-.082.041v.041l-.082.041v.082l-.206.165v.083l-.164.124v.082l-.164.124v.082l-.164.124v.082l-.206.165v.083l-.164.124v.082l-.082.041v.041l-.082.041v.082l-.164.124v.083l-.205.165v.082l-.082.041v.041l-.082.041v.083l-.164.124v.083l-.164.124v.082l-.205.165c-.082.113-.047.164-.206.207Z" transform="translate(-2911.125 -249.918)" fill="#2d4c86"/>
</svg>
