<svg xmlns="http://www.w3.org/2000/svg" xmlns:xlink="http://www.w3.org/1999/xlink" width="65.609" height="66.241" viewBox="0 0 65.609 66.241">
  <defs>
    <clipPath id="clip-path">
      <rect id="Rectangle_94" data-name="Rectangle 94" width="65.609" height="66.241" fill="none"/>
    </clipPath>
  </defs>
  <g id="Group_152" data-name="Group 152" clip-path="url(#clip-path)">
    <path id="Path_89" data-name="Path 89" d="M28.7,156.388c0,.266.007.529.021.792H1.928c-1.363,0-1.943-.59-1.927-1.96a20.609,20.609,0,0,1,12.64-18.578.616.616,0,0,1,.7.106,14.105,14.105,0,0,0,17.507.031.671.671,0,0,1,.791-.123,21.967,21.967,0,0,1,7.376,5.242A15.332,15.332,0,0,0,28.7,156.388" transform="translate(6.098 -108.069)" fill="#b3c3de"/>
    <path id="Path_90" data-name="Path 90" d="M67.417,25.275a12.638,12.638,0,1,1,12.644-12.61,12.649,12.649,0,0,1-12.644,12.61" transform="translate(-39.205 4.879)" fill="#b3c3de"/>
    <path id="Path_91" data-name="Path 91" d="M213.109,196.231a13.48,13.48,0,1,1-13.48-13.479,13.48,13.48,0,0,1,13.48,13.479" transform="translate(-149.501 -147.912)" fill="#2d4c86"/>
    <path id="Path_92" data-name="Path 92" d="M234.735,235.352H233.8a.973.973,0,0,1-.973-.973v-9.5a.973.973,0,0,1,.973-.973h.936a.973.973,0,0,1,.973.973v9.5a.973.973,0,0,1-.973.973" transform="translate(-186.97 -180.951)" fill="#fff"/>
    <path id="Path_93" data-name="Path 93" d="M266.561,235.352h-.936a.973.973,0,0,1-.973-.973v-9.5a.973.973,0,0,1,.973-.973h.936a.973.973,0,0,1,.973.973v9.5a.973.973,0,0,1-.973.973" transform="translate(-212.519 -180.951)" fill="#fff"/>
  </g>
</svg>
