<svg xmlns="http://www.w3.org/2000/svg" xmlns:xlink="http://www.w3.org/1999/xlink" width="23.748" height="33.249" viewBox="0 0 23.748 33.249">
  <defs>
    <clipPath id="clip-path">
      <rect id="Rectangle_95" data-name="Rectangle 95" width="23.748" height="33.249" fill="#ec7a6d"/>
    </clipPath>
  </defs>
  <g id="Group_154" data-name="Group 154" clip-path="url(#clip-path)">
    <path id="Path_94" data-name="Path 94" d="M2.372,74.285c-.446,0-.851,0-1.256,0A1.094,1.094,0,0,1,0,73.223a1.142,1.142,0,0,1,1-1.294,4.266,4.266,0,0,1,.519-.018H22.223c.148,0,.3,0,.445.013a1.121,1.121,0,0,1,1.079,1.284,1.084,1.084,0,0,1-1.165,1.077c-.383,0-.766,0-1.21,0v.474q0,10.388,0,20.777a2.358,2.358,0,0,1-1.86,2.438,2.662,2.662,0,0,1-.588.055q-7.051,0-14.1,0a2.363,2.363,0,0,1-2.441-2.282c-.011-.16-.009-.321-.009-.482q0-10.24,0-20.48ZM9.5,84.986q0-3.43,0-6.859A1.164,1.164,0,0,0,8.3,76.942a1.282,1.282,0,0,0-1.2,1.2c.027,4.548.015,9.1.016,13.644a1.174,1.174,0,0,0,1.2,1.182A1.156,1.156,0,0,0,9.5,91.808q0-3.411,0-6.822m7.125-.034q0-3.411,0-6.822a1.151,1.151,0,0,0-1.19-1.184,1.172,1.172,0,0,0-1.185,1.2q0,6.822,0,13.644a1.183,1.183,0,0,0,1.2,1.187,1.247,1.247,0,0,0,1.192-1.2c-.04-2.273-.016-4.548-.016-6.822" transform="translate(0 -64.783)" fill="#ec7a6d"/>
    <path id="Path_95" data-name="Path 95" d="M7.135,2.379c0-.412-.008-.77,0-1.127A1.18,1.18,0,0,1,8.343.015q3.523-.028,7.047,0a1.2,1.2,0,0,1,1.244,1.317c0,.332,0,.665,0,1.05H22.2c.173,0,.347,0,.519.014a1.122,1.122,0,0,1,1.041,1.283,1.076,1.076,0,0,1-1.128,1.076q-10.737,0-21.475,0A1.093,1.093,0,0,1,.014,3.646,1.1,1.1,0,0,1,1.127,2.4c1.842-.023,3.684-.014,5.526-.018h.482" transform="translate(-0.012 0)" fill="#ec7a6d"/>
  </g>
</svg>
