<svg xmlns="http://www.w3.org/2000/svg" xmlns:xlink="http://www.w3.org/1999/xlink" width="54" height="54" viewBox="0 0 54 54">
  <defs>
    <clipPath id="clip-path">
      <rect id="Rectangle_54" data-name="Rectangle 54" width="32.057" height="39.207" fill="#fafbfb"/>
    </clipPath>
  </defs>
  <g id="Group_262" data-name="Group 262" transform="translate(-894 -278.95)">
    <circle id="Ellipse_8" data-name="Ellipse 8" cx="27" cy="27" r="27" transform="translate(894 278.95)" fill="#cd9999"/>
    <g id="Group_118" data-name="Group 118" transform="translate(903.973 286.347)" clip-path="url(#clip-path)">
      <path id="Path_39" data-name="Path 39" d="M15.891,107.776q0-4.926,0-9.851a1.787,1.787,0,1,1,3.562-.3c.011.152.006.306.006.459q0,9.621,0,19.243a3.408,3.408,0,0,0,3.591,3.584h14.19a3.409,3.409,0,0,0,3.591-3.585q0-9.7,0-19.41a1.786,1.786,0,0,1,1.412-1.9,1.756,1.756,0,0,1,2.115,1.45,3.523,3.523,0,0,1,.039.581q0,9.663,0,19.326a6.967,6.967,0,0,1-5.831,7,7.05,7.05,0,0,1-1.245.1q-7.178.01-14.357,0a6.987,6.987,0,0,1-7.075-7.062q-.006-4.821,0-9.642" transform="translate(-14.118 -85.276)" fill="#fafbfb"/>
      <path id="Path_40" data-name="Path 40" d="M23.145,5.347h1.27c1.919,0,3.839-.009,5.758,0a1.784,1.784,0,0,1,.252,3.559c-.1.008-.195.006-.292.006q-14.1,0-28.205,0a1.789,1.789,0,1,1-.006-3.567c2.142-.007,4.284,0,6.425,0h.564V4.878c0-1-.007-2,0-3A1.761,1.761,0,0,1,10.769.008q5.257-.015,10.514,0A1.76,1.76,0,0,1,23.143,1.87c.01,1.138,0,2.276,0,3.478M12.486,5.312h7.078V3.6H12.486Z" transform="translate(0 0)" fill="#fafbfb"/>
      <path id="Path_41" data-name="Path 41" d="M95.809,135.823c0-2.072-.007-4.144,0-6.216a1.77,1.77,0,0,1,3.381-.721,2.356,2.356,0,0,1,.175.889q.017,6.091.005,12.182a1.788,1.788,0,1,1-3.566,0q0-3.066,0-6.133" transform="translate(-85.124 -113.59)" fill="#fafbfb"/>
      <path id="Path_42" data-name="Path 42" d="M163.194,135.919c0,2.072.005,4.144,0,6.216a1.747,1.747,0,0,1-1.315,1.722,1.708,1.708,0,0,1-1.97-.8,2.288,2.288,0,0,1-.268-1.029q-.027-6.133-.008-12.265a1.785,1.785,0,1,1,3.564.02q.006,3.066,0,6.133" transform="translate(-141.824 -113.633)" fill="#fafbfb"/>
    </g>
  </g>
</svg>
