<svg xmlns="http://www.w3.org/2000/svg" width="38.96" height="51" viewBox="0 0 38.96 51">
  <g id="Group_233" data-name="Group 233" transform="translate(-2026.52 -1027)">
    <path id="Rectangle_3_copy_29" data-name="Rectangle 3 copy 29" d="M0,0H31.71a6.25,6.25,0,0,1,6.25,6.25v37.5A6.25,6.25,0,0,1,31.71,50H0a0,0,0,0,1,0,0V0A0,0,0,0,1,0,0Z" transform="translate(2027.02 1027.5)" fill="#ebeced" stroke="#d5d9dd" stroke-width="1"/>
    <path id="Arrow_1_copy_5" data-name="Arrow 1 copy 5" d="M2039,1048.1h14.386v.029l-.115.085v.057l-.115.085v.057l-.143.114v.057l-.057.028v.029l-.057.028v.057l-.057.028v.029l-.057.028v.057l-.143.114v.057l-.057.028v.029l-.057.028v.057l-.115.085v.057l-.115.085v.057l-.143.114v.057l-.115.085v.057l-.115.085v.057l-.115.086v.057l-.143.114v.057l-.115.085v.057l-.115.085v.057l-.115.086v.057l-.143.114v.057l-.115.085v.057l-.115.085v.057l-.115.085v.057l-.143.114v.057l-.115.085v.057l-.115.085v.057l-.115.085v.057l-.143.114v.057l-.115.085v.057l-.115.085v.057l-.115.085v.057l-.143.114v.057l-.057.028v.029l-.058.028v.057l-.115.085v.057l-.115.085v.057l-.143.114v.057l-.115.086v.057l-.115.085v.057l-.115.085v.057l-.143.114v.057l-.115.085v.057l-.115.086v.057l-.115.085v.057l-.143.114v.057l-.115.085v.057l-.115.085v.057l-.057.028v.028l-.057.028v.057l-.143.114v.057l-.115.085v.057l-.115.085v.057l-.115.086v.057l-.143.114v.057l-.115.085v.057l-.057.028v.028l-.057.028v.057l-.115.086v.057l-.143.114v.057l-.057.029v.028l-.057.028v.057l-.115.085v.057l-.115.085v.057l-.143.114c-.057.078-.032.113-.143.142Z" fill="#31363f"/>
  </g>
</svg>
