<svg xmlns="http://www.w3.org/2000/svg" xmlns:xlink="http://www.w3.org/1999/xlink" width="106.57" height="152.53" viewBox="0 0 106.57 152.53">
  <defs>
    <clipPath id="clip-path">
      <rect id="Rectangle_1" data-name="Rectangle 1" width="31.15" height="31.234" fill="#fff"/>
    </clipPath>
  </defs>
  <g id="Group_261" data-name="Group 261" transform="translate(-1970.729 -479.949)">
    <rect id="Rectangle_5_copy_10" data-name="Rectangle 5 copy 10" width="103.57" height="149.53" rx="7.5" transform="translate(1972.229 481.449)" fill="#f2efee" stroke="#f2efee" stroke-width="3"/>
    <text id="EDIT" transform="translate(2028.44 618.332)" fill="#000120" font-size="21.875" font-family="Helvetica" opacity="0.58"><tspan x="-24.914" y="0">EDIT</tspan></text>
    <g id="Group_260" data-name="Group 260">
      <circle id="Ellipse_1" data-name="Ellipse 1" cx="32.5" cy="32.5" r="32.5" transform="translate(1992.001 514)" fill="#2d4c86"/>
      <g id="Group_2" data-name="Group 2" transform="translate(2009.001 531)">
        <g id="Group_1" data-name="Group 1" clip-path="url(#clip-path)">
          <path id="Path_1" data-name="Path 1" d="M2.177,60.653H26.765V45.073H29v.214q0,7.637,0,15.274A2.229,2.229,0,0,1,26.658,62.9H2.345A2.233,2.233,0,0,1,0,60.564Q0,48.387,0,36.211a2.222,2.222,0,0,1,1.931-2.277,2.464,2.464,0,0,1,.369-.02H17.835v2.153H2.177Z" transform="translate(0 -31.666)" fill="#fff"/>
          <path id="Path_2" data-name="Path 2" d="M180.651,73.785l-4.687-4.694L186.91,58.13l4.676,4.692L180.651,73.785" transform="translate(-164.303 -54.278)" fill="#fff"/>
          <path id="Path_3" data-name="Path 3" d="M370.63,6.882,365.909,2.15l.869-.855c.231-.228.457-.462.692-.685a2.2,2.2,0,0,1,2.993-.044q.928.859,1.789,1.79a2.173,2.173,0,0,1-.005,2.916c-.505.549-1.05,1.061-1.578,1.588a.134.134,0,0,1-.038.022" transform="translate(-341.66 0)" fill="#fff"/>
          <path id="Path_4" data-name="Path 4" d="M118.283,247.925l4.786,4.785c-.274.14-.551.29-.836.423a.841.841,0,0,1-.358.084,5.079,5.079,0,0,0-1.635.392c-1.336.42-2.67.85-4,1.276-.055.017-.111.03-.2.053.022-.081.035-.141.054-.2q.792-2.484,1.584-4.969a.938.938,0,0,0,.05-.284,2.25,2.25,0,0,1,.448-1.383c.045-.062.081-.131.11-.179" transform="translate(-108.347 -231.495)" fill="#fff"/>
        </g>
      </g>
    </g>
  </g>
</svg>
