<svg xmlns="http://www.w3.org/2000/svg" xmlns:xlink="http://www.w3.org/1999/xlink" width="47.597" height="50.851" viewBox="0 0 47.597 50.851">
  <defs>
    <clipPath id="clip-path">
      <rect id="Rectangle_109" data-name="Rectangle 109" width="47.597" height="50.851" fill="#586277"/>
    </clipPath>
  </defs>
  <g id="Group_191" data-name="Group 191" transform="translate(62 23)">
    <g id="Group_190" data-name="Group 190" transform="translate(-62 -23)" clip-path="url(#clip-path)">
      <path id="Path_105" data-name="Path 105" d="M212.481,248.808c-.766-.188-1.549-.322-2.294-.572a10.321,10.321,0,1,1,5.192.4c-.272.05-.541.117-.812.176ZM206.3,238.465a7.225,7.225,0,1,0,7.245-7.2,7.236,7.236,0,0,0-7.245,7.2" transform="translate(-176.262 -197.956)" fill="#586277"/>
      <path id="Path_106" data-name="Path 106" d="M82.438,0c.2.066.4.131.6.2A3.489,3.489,0,0,1,85.43,3.31c.047,1.006.051,2.018.009,3.024a3.48,3.48,0,0,1-3.384,3.417c-1.2.056-2.413.024-3.62.024q-4.365,0-8.73,0a3.617,3.617,0,0,1-3.949-3.942c0-.777-.014-1.555.006-2.331A3.576,3.576,0,0,1,68.279.168c.153-.049.3-.112.453-.168ZM75.582,3.265c-2,0-4,.007-6.006-.006-.407,0-.565.146-.554.554.019.728.018,1.456,0,2.184-.009.39.166.534.535.534q6.055,0,12.111,0c.378,0,.54-.166.535-.541-.009-.695,0-1.39,0-2.085,0-.595-.051-.641-.662-.641q-2.978,0-5.956,0" transform="translate(-57.045)" fill="#586277"/>
      <path id="Path_107" data-name="Path 107" d="M6.2,24.653V27.91c-.706,0-1.4,0-2.086,0-.665,0-.846.184-.846.861q0,18.321,0,36.642c0,.69.176.852.9.853H25.239v3.226c-.169.01-.342.03-.516.03q-10.327,0-20.655,0a3.837,3.837,0,0,1-4.063-4.04q-.011-18.371,0-36.742A3.845,3.845,0,0,1,4.12,24.653c.676,0,1.353,0,2.079,0" transform="translate(0 -21.388)" fill="#586277"/>
      <path id="Path_108" data-name="Path 108" d="M236.163,27.6V24.285a22.1,22.1,0,0,1,2.917.188,3.7,3.7,0,0,1,2.913,3.518c.026,5.177.013,10.355.013,15.533a1.79,1.79,0,0,1-.031.223H238.74v-.583q0-7.295,0-14.59c0-.848-.128-.974-.98-.975h-1.6" transform="translate(-204.889 -21.069)" fill="#586277"/>
      <path id="Path_109" data-name="Path 109" d="M42,102.9l2.4-2.2,1.976,2.13,4.672-5.076,2.4,2.195c-.422.463-.819.9-1.22,1.337Q50,103.719,47.76,106.145a1.735,1.735,0,0,1-2.758.022c-.99-1.066-1.97-2.141-3-3.266" transform="translate(-36.436 -84.813)" fill="#586277"/>
      <path id="Path_110" data-name="Path 110" d="M44.4,249.2l1.971,2.133,4.677-5.078,2.4,2.2c-.336.367-.645.708-.956,1.046q-2.384,2.593-4.771,5.184a1.719,1.719,0,0,1-2.689.014c-1-1.076-1.993-2.164-3.035-3.3l2.4-2.2" transform="translate(-36.436 -213.645)" fill="#586277"/>
      <path id="Path_111" data-name="Path 111" d="M42.114,177.535l2.388-2.187,1.97,2.136,4.676-5.081,2.4,2.2c-.23.253-.436.483-.645.71q-2.521,2.738-5.043,5.474a1.74,1.74,0,0,1-2.793-.007q-1.327-1.442-2.652-2.886c-.1-.108-.189-.223-.3-.358" transform="translate(-36.537 -149.573)" fill="#586277"/>
      <rect id="Rectangle_105" data-name="Rectangle 105" width="11.599" height="3.199" transform="translate(19.184 26.54)" fill="#586277"/>
      <rect id="Rectangle_106" data-name="Rectangle 106" width="11.599" height="3.188" transform="translate(19.191 16.763)" fill="#586277"/>
      <rect id="Rectangle_107" data-name="Rectangle 107" width="5.391" height="3.187" transform="translate(19.192 36.429)" fill="#586277"/>
      <rect id="Rectangle_108" data-name="Rectangle 108" width="3.209" height="2.746" transform="translate(33.885 25.144)" fill="#586277"/>
      <path id="Path_112" data-name="Path 112" d="M243.64,281.949l2.316-2.425,1.73,1.739,3.718-3.542,2.151,2.331c-.658.676-1.428,1.469-2.2,2.259s-1.541,1.591-2.326,2.372a1.643,1.643,0,0,1-2.5.007c-.968-.925-1.944-1.841-2.894-2.74" transform="translate(-211.376 -240.944)" fill="#586277"/>
    </g>
  </g>
</svg>
