<svg xmlns="http://www.w3.org/2000/svg" width="25.289" height="36.243" viewBox="0 0 25.289 36.243">
  <path id="Icon_awesome-bell" data-name="Icon awesome-bell" d="M12.645,36.243c1.994,0,3.611-2.028,3.611-4.53H9.033C9.033,34.215,10.651,36.243,12.645,36.243ZM24.8,25.645c-1.091-1.47-3.131-3.68-3.131-10.922,0-5.5-3.075-9.9-7.222-10.983V2.265A2.075,2.075,0,0,0,12.645,0a2.075,2.075,0,0,0-1.805,2.265V3.74C6.693,4.821,3.617,9.223,3.617,14.724c0,7.241-2.041,9.452-3.131,10.922A2.546,2.546,0,0,0,0,27.182a2.083,2.083,0,0,0,1.812,2.265H23.477a2.082,2.082,0,0,0,1.812-2.265,2.544,2.544,0,0,0-.486-1.537Z" fill="#a4a3b1"/>
</svg>
