<svg id="Group_131" data-name="Group 131" xmlns="http://www.w3.org/2000/svg" xmlns:xlink="http://www.w3.org/1999/xlink" width="53.45" height="64.263" viewBox="0 0 53.45 64.263">
  <defs>
    <clipPath id="clip-path">
      <rect id="Rectangle_69" data-name="Rectangle 69" width="53.45" height="64.263" fill="#1b334b"/>
    </clipPath>
  </defs>
  <g id="Group_130" data-name="Group 130" clip-path="url(#clip-path)">
    <path id="Path_44" data-name="Path 44" d="M47.459,41.68v.7q0,10.76,0,21.52a7.261,7.261,0,0,1-7.327,7.184c-5.779.017-11.558,0-17.336,0-5.163,0-10.325.01-15.488,0A7.278,7.278,0,0,1,.118,65.119a8.229,8.229,0,0,1-.111-1.514Q0,41.76,0,19.914a7.282,7.282,0,0,1,7.395-7.4c2.953-.009,5.905.007,8.858-.012.4,0,.534.083.516.5-.035.814-.039,1.631,0,2.444.023.455-.147.524-.553.522-2.88-.017-5.76-.011-8.641-.009a3.855,3.855,0,0,0-4.144,4.127q0,21.764,0,43.53A3.819,3.819,0,0,0,7.4,67.643q16.357.018,32.715,0a3.8,3.8,0,0,0,3.911-3.966q.007-8.641,0-17.282a1.338,1.338,0,0,1,.328-.931c1.018-1.215,2.016-2.448,3.111-3.783" transform="translate(0 -6.831)" fill="#1b334b"/>
    <path id="Path_45" data-name="Path 45" d="M67.384,67.786c-.1-.082-.181-.146-.258-.217Q61.415,62.3,55.7,57.038c-.208-.191-.215-.294-.024-.5q1.949-2.083,3.868-4.193c.228-.252.331-.185.538.007q3.064,2.848,6.146,5.677c.5.458.5.46.938-.08q5.712-6.977,11.412-13.963c.325-.4.5-.373.859-.069,1.355,1.145,2.734,2.262,4.117,3.374.268.215.352.339.092.656q-8,9.736-15.976,19.493l-.285.344" transform="translate(-30.353 -23.877)" fill="#2c4c85"/>
    <path id="Path_46" data-name="Path 46" d="M81.026,29.055V27.523q0-3.775,0-7.551a3.841,3.841,0,0,0-4.08-4.024c-2.9,0-5.794-.009-8.691.015-.461,0-.575-.127-.555-.571.037-.831.021-1.666,0-2.5-.006-.3.071-.4.388-.4,3.078.012,6.157-.034,9.235.019a7.244,7.244,0,0,1,7.133,7.315c0,1.521-.006,3.042.006,4.563a1.2,1.2,0,0,1-.29.836c-1.028,1.229-2.038,2.472-3.149,3.825" transform="translate(-36.999 -6.826)" fill="#1b334b"/>
    <path id="Path_47" data-name="Path 47" d="M44.952,9.376c-1.882,0-3.764-.009-5.646.008-.347,0-.455-.064-.432-.44a12.273,12.273,0,0,1,2.09-6.575,4.561,4.561,0,0,1,7.9-.178,11.4,11.4,0,0,1,2.107,5.561c.068.516.338,1.183.047,1.518s-.987.1-1.5.1c-1.52.015-3.04.005-4.561.005m.029-3.386a1.469,1.469,0,0,0-.008-2.937,1.469,1.469,0,1,0,.008,2.937" transform="translate(-21.244 0)" fill="#1b334b"/>
    <path id="Path_48" data-name="Path 48" d="M28.6,26.355a10.957,10.957,0,0,1,3.96-4.068.958.958,0,0,1,.531-.064q6.272,0,12.545-.006a1.388,1.388,0,0,1,.81.239,10.885,10.885,0,0,1,3.408,3.44.773.773,0,0,1,.2.459Z" transform="translate(-15.631 -12.142)" fill="#1b334b"/>
    <path id="Path_49" data-name="Path 49" d="M33.628,113.476c-4.962,0-9.924-.006-14.886.01-.444,0-.587-.1-.57-.56.035-.96.008-.961.967-.961q14.7,0,29.392-.011c.486,0,.642.106.618.61-.044.911-.012.912-.906.912H33.628" transform="translate(-9.931 -61.187)" fill="#1b334b"/>
    <path id="Path_50" data-name="Path 50" d="M33.675,100.956c4.961,0,9.922.009,14.883-.012.491,0,.6.136.584.6-.029.925,0,.921-.949.921q-14.693,0-29.386.016c-.535,0-.668-.135-.64-.652.046-.87.013-.872.9-.872H33.675" transform="translate(-9.928 -55.169)" fill="#1b334b"/>
    <path id="Path_53" data-name="Path 53" d="M25.8,69.452c-2.373,0-4.746-.012-7.119.011-.421,0-.508-.119-.5-.515.023-.992,0-.993,1-.993,4.547,0,9.094.006,13.641-.01.471,0,.666.079.637.608-.049.9-.012.9-.92.9H25.8" transform="translate(-9.934 -37.135)" fill="#1b334b"/>
    <path id="Path_58" data-name="Path 58" d="M25.8,69.452c-2.373,0-4.746-.012-7.119.011-.421,0-.508-.119-.5-.515.023-.992,0-.993,1-.993,4.547,0,9.094.006,13.641-.01.471,0,.666.079.637.608-.049.9-.012.9-.92.9H25.8" transform="translate(-9.934 -41.135)" fill="#1b334b"/>
    <path id="Path_56" data-name="Path 56" d="M25.806,89.942c2.372,0,4.743.013,7.114-.012.444,0,.541.129.531.544-.024.979,0,.979-1,.979-4.58,0-9.16-.007-13.74.011-.439,0-.54-.125-.53-.54.024-.983,0-.983,1-.983h6.626" transform="translate(-9.935 -49.15)" fill="#1b334b"/>
    <path id="Path_57" data-name="Path 57" d="M25.8,78.939c2.389,0,4.778.009,7.167-.009.38,0,.489.1.483.481-.015,1.038,0,1.038-1.052,1.038-4.561,0-9.121-.006-13.682.01-.42,0-.553-.1-.54-.531.03-.987.007-.988,1-.988H25.8" transform="translate(-9.933 -43.138)" fill="#1b334b"/>
  </g>
</svg>
