<svg xmlns="http://www.w3.org/2000/svg" xmlns:xlink="http://www.w3.org/1999/xlink" width="78.429" height="91.752" viewBox="0 0 78.429 91.752">
  <defs>
    <clipPath id="clip-path">
      <rect id="Rectangle_88" data-name="Rectangle 88" width="78.429" height="91.752" transform="translate(-3 -8)" fill="#1b334b"/>
    </clipPath>
  </defs>
  <g id="Group_147" data-name="Group 147" transform="translate(3 8)">
    <g id="Group_146" data-name="Group 146" clip-path="url(#clip-path)">
      <path id="Path_83" data-name="Path 83" d="M271.367,10.463l2.342.839-6.368,5.332-1.089-8,2.286.806A17.754,17.754,0,0,1,280.06.518a16.967,16.967,0,0,1,10.209.6A17.649,17.649,0,0,1,301.718,16.6l-2.887.209a14.869,14.869,0,0,0-4.98-10.161,14.269,14.269,0,0,0-8.018-3.578,14.744,14.744,0,0,0-14.466,7.389" transform="matrix(0.978, -0.208, 0.208, 0.978, -218.831, 52.759)" fill="#253f6e" stroke="#253f6e" stroke-width="3"/>
      <path id="Path_84" data-name="Path 84" d="M34.667,180.437q-14.2,0-28.393,0c-1.663,0-2.012.351-2.013,2.029q0,13.242,0,26.484c0,1.632.4,2.029,2.042,2.03q21.951,0,43.9,0c1.62,0,2.319.377,2.23,1.289-.137,1.39-1.229,1.214-2.176,1.214q-22.07,0-44.141,0c-2.813,0-4.4-1.49-4.414-4.293-.031-9.027-.066-18.055.022-27.081.026-2.656-.936-5.042-1.524-7.529-.647-2.736.226-4.451,2.992-5.2q11.681-3.165,23.375-6.285,13.7-3.665,27.4-7.31c2.542-.678,4.313.4,5,2.965,1.609,6.05,3.256,12.09,4.844,18.145a1.345,1.345,0,0,0,1.149,1.115,3.734,3.734,0,0,1,2.945,3.722q.037,13.958,0,27.916a3.778,3.778,0,0,1-3.887,3.829c-1.63.028-3.261,0-4.891.008-.874,0-1.663-.161-1.665-1.234,0-1.041.732-1.286,1.633-1.277,1.511.015,3.022.017,4.533,0,1.272-.015,1.721-.455,1.722-1.725q.012-13.541,0-27.081c0-1.333-.428-1.733-1.812-1.734q-14.435,0-28.871,0m22.587-18.228c-.254-.941-.456-1.747-.692-2.543-.439-1.483-.753-1.655-2.222-1.263q-18.114,4.834-36.227,9.672-7.049,1.884-14.094,3.784c-.857.23-1.663.525-1.417,1.654.224,1.031.528,2.046.8,3.1.262-.06.415-.09.565-.13q12.369-3.3,24.735-6.611c.931-.25,1.831-.358,2.127.785.279,1.08-.55,1.431-1.416,1.662Q23.6,173.864,17.8,175.424q-4.109,1.1-8.218,2.209a.851.851,0,0,0,.6.219q11.572,0,23.143-.01a7.151,7.151,0,0,0,1.757-.259c2.843-.738,5.68-1.5,8.517-2.263,3.029-.812,6.054-1.636,9.084-2.446,1.356-.362,2.093-.13,2.263.762.228,1.2-.67,1.458-1.543,1.695-.766.208-1.537.4-2.3.6q-3.119.844-6.237,1.7l.041.128h16.5l-1.139-4.256c-.83.216-1.558.4-2.285.594a1.22,1.22,0,0,1-1.688-.858c-.236-.851.261-1.358,1.039-1.6.715-.22,1.442-.4,2.24-.622l-1.714-6.33c-2.886.771-5.647,1.505-8.406,2.246q-5.866,1.574-11.731,3.151c-.9.24-1.844.358-2.141-.8-.281-1.094.575-1.429,1.429-1.659,1-.268,2-.529,2.992-.8l17.251-4.628" transform="translate(0 -135.743)" fill="#1b334b"/>
      <path id="Path_85" data-name="Path 85" d="M208.717,411.449a9.853,9.853,0,1,1-9.853-9.853,9.853,9.853,0,0,1,9.853,9.853" transform="translate(-164.901 -350.368)" fill="none" stroke="#1b334b" stroke-width="2"/>
    </g>
  </g>
</svg>
