<svg xmlns="http://www.w3.org/2000/svg" xmlns:xlink="http://www.w3.org/1999/xlink" width="62.7" height="76.881" viewBox="0 0 62.7 76.881">
  <defs>
    <clipPath id="clip-path">
      <rect id="Rectangle_87" data-name="Rectangle 87" width="62.7" height="76.881" transform="translate(0 0)" fill="none"/>
    </clipPath>
  </defs>
  <g id="Group_145" data-name="Group 145" transform="translate(-16.862 -34.676)">
    <g id="Group_144" data-name="Group 144" transform="translate(16.862 34.676)" clip-path="url(#clip-path)">
      <path id="Path_82" data-name="Path 82" d="M54.039,76.842V69.131H51.3q-21.278,0-42.555,0c-5.718,0-8.719-2.947-8.73-8.653q-.037-19.423,0-38.844c.013-5.95,3.6-9,9.8-8.221V26.09H21.645V17.577c-1.083,0-2.2.065-3.3-.014-1.862-.134-2.434-1.212-1.242-2.556C21.367,10.2,25.72,5.46,30.048.7c.932-1.025,1.8-.879,2.7.122,4.25,4.717,8.54,9.4,12.769,14.133a2.02,2.02,0,0,1,.5,1.681,2.183,2.183,0,0,1-1.552.895,27.226,27.226,0,0,1-3.412.04V26.31c3.412,0,6.848.178,10.261-.035,9-.562,11.616,3.108,11.379,11.284-.3,10.383-.038,20.781-.088,31.172-.026,5.32-3.392,8.547-8.558,8.111m.049-37.185c4.46-.665,6.8-2.911,6.548-6.127-.266-3.414-2.853-5.3-7.312-5.325-.577,0-1.155,0-1.732,0q-19.667,0-39.333-.009c-3.474-.006-7.076.623-10.306-2.226,0,11.717-.006,22.918,0,34.119,0,4.978,2.072,7.052,7.037,7.054q21.275.009,42.549,0h2.548ZM41.821,14.818,31.3,3.282,20.75,14.9c3.553-.513,4.052,1.04,3.821,3.569-.23,2.505-.051,5.048-.051,7.621H38.1c0-2.6.1-4.98-.029-7.35-.134-2.407.074-4.363,3.746-3.921M56.1,74.671c3.186-.708,4.558-2.533,4.567-6.092q.035-13.727,0-27.455a13.714,13.714,0,0,0-.187-1.6L56.1,41.659Zm-48.37-48.6V15.282c-3.507.168-5.837,2.49-5.75,5.55.085,2.98,2.339,5.1,5.75,5.244" transform="translate(0 0)" fill="#1b334b" stroke="#1b334b" stroke-width="1"/>
    </g>
    <circle id="Ellipse_14" data-name="Ellipse 14" cx="12" cy="12" r="12" transform="translate(35.943 70.479)" fill="#2c4c85"/>
  </g>
</svg>
