<svg xmlns="http://www.w3.org/2000/svg" width="108" height="108" viewBox="0 0 108 108">
  <circle id="Ellipse_21" data-name="Ellipse 21" cx="54" cy="54" r="54" fill="#6279a5"/>
  <g id="Group_260" data-name="Group 260" transform="translate(33 39.937)">
    <path id="Path" d="M33.424,19.768a2.7,2.7,0,0,1-.816,1.986L21.775,32.608a2.825,2.825,0,0,1-2.008.816,2.7,2.7,0,0,1-1.986-.816L2.008,16.812A6.576,6.576,0,0,1,.585,14.583,6.813,6.813,0,0,1,0,12V2.824A2.714,2.714,0,0,1,.838.838,2.714,2.714,0,0,1,2.824,0H12a6.812,6.812,0,0,1,2.581.585,6.839,6.839,0,0,1,2.25,1.423L32.608,17.76A2.825,2.825,0,0,1,33.424,19.768Z" fill="#fff"/>
    <path id="Path-2" data-name="Path" d="M26.364,19.768a2.7,2.7,0,0,1-.816,1.986L14.716,32.608a2.825,2.825,0,0,1-2.008.816,2.472,2.472,0,0,1-1.3-.309,6.263,6.263,0,0,1-1.169-.993L20.606,21.754a2.7,2.7,0,0,0,.816-1.986,2.825,2.825,0,0,0-.816-2.008L4.832,2.008A6.839,6.839,0,0,0,2.581.585,6.812,6.812,0,0,0,0,0H4.942A6.812,6.812,0,0,1,7.523.585a6.839,6.839,0,0,1,2.25,1.423L25.548,17.76A2.825,2.825,0,0,1,26.364,19.768Z" transform="translate(15.531)" fill="#fff"/>
  </g>
</svg>
