
<svg xmlns="http://www.w3.org/2000/svg" xmlns:xlink="http://www.w3.org/1999/xlink" width="108" height="108" viewBox="0 0 108 108">
  <defs>
    <clipPath id="clip-path">
      <rect id="Rectangle_124" data-name="Rectangle 124" width="36.001" height="48.868" fill="#2d4c86"/>
    </clipPath>
  </defs>
  <circle id="Ellipse_21" data-name="Ellipse 21" cx="54" cy="54" r="54" fill="#d8e1ef"/>
  <g id="Group_263" data-name="Group 263" transform="translate(36 29.827)">
    <g id="Group_262" data-name="Group 262" clip-path="url(#clip-path)">
      <path id="Path_113" data-name="Path 113" d="M11.543,38.981c-2.454.015-3.924,1.434-4.7,3.865A32.376,32.376,0,0,1,5.081,46.68c-.825,1.754-1.934,2.217-3.66,1.529C.05,47.663-.381,46.387.357,44.649c.846-1.993,1.925-3.9,2.667-5.923A6.276,6.276,0,0,1,7.9,34.5c2.679-.639,5.288-1.571,7.937-2.343a4.643,4.643,0,0,1,5.8,2.3c1.109,1.863,2.395,3.633,3.358,5.565a4.019,4.019,0,0,0,3.531,2.325c1.878.224,3.74.6,5.6.963,1.453.286,2.012,1.294,1.846,3.093a1.838,1.838,0,0,1-2.215,1.835,68.912,68.912,0,0,1-9.738-1.653c-1.3-.363-2.232-2.024-3.34-3.1-.533,1.847-1.157,3.837-1.644,5.86a1.772,1.772,0,0,0,.592,1.326c1.137,1.084,2.339,2.1,3.551,3.106A5.12,5.12,0,0,1,25.1,57.564c.2,2.921.48,5.837.681,8.759.142,2.068-.766,3.4-2.3,3.5-2.282.15-3.352-.868-3.506-3.23-.154-2.381-.285-4.769-.616-7.128a4.876,4.876,0,0,0-1.24-2.426,33.318,33.318,0,0,0-3.2-2.744,9.811,9.811,0,0,0-.36,1.86c.058,3.455-1.537,6.078-3.942,8.4C9.224,65.9,8.028,67.463,6.7,68.9c-1.546,1.666-3.047,1.93-4.207.754-1.471-1.492-1.587-3.177-.048-4.685,1.7-1.667,3.154-3.585,4.808-5.3a5.611,5.611,0,0,0,1.523-3.27c.873-5.813,1.837-11.612,2.766-17.408" transform="translate(0 -21.505)" fill="#2d4c86"/>
      <path id="Path_114" data-name="Path 114" d="M45.245,4.945A4.973,4.973,0,0,1,50.2,0a5.045,5.045,0,0,1,5.031,5.071,5.13,5.13,0,0,1-4.993,4.977,5.056,5.056,0,0,1-4.995-5.1" transform="translate(-30.506 0)" fill="#2d4c86"/>
    </g>
  </g>
</svg>
